<svg id="Layer_1" data-name="Layer 1" xmlns="http://www.w3.org/2000/svg" viewBox="0 0 64 51"><defs><style>.cls-1{font-size:11.1px;font-family:CooperBlackStd, Cooper Std;}.cls-2{fill:#174ea5;}.cls-3{fill:#497bc4;}</style></defs><text class="cls-1" transform="translate(10.54 43.32)">HireMe</text><path class="cls-2" d="M26,25.36c0-1.71,0-3.43,0-5.14,0-.41.07-.57.52-.57,3.47,0,7,0,10.42,0,.42,0,.5.15.5.53,0,1.17,0,2.33,0,3.49,0,.5-.17.57-.6.56-1.9,0-3.8,0-5.69,0-.51,0-.6.15-.59.61,0,1.9,0,3.8,0,5.7,0,.44-.13.54-.55.53-1.18,0-2.37,0-3.55,0-.37,0-.49-.1-.48-.48C26,28.83,26,27.1,26,25.36Z"/><path class="cls-3" d="M35.17,12.85c1.71,0,3.42,0,5.14,0,.43,0,.62.08.61.57,0,1.14,0,2.28,0,3.43,0,.43-.15.56-.57.56q-5.2,0-10.41,0c-.42,0-.58-.1-.57-.55,0-1.16,0-2.32,0-3.49,0-.4.13-.52.53-.51Z"/><path class="cls-2" d="M24.75,17.39c-.61,0-1.22,0-1.83,0-.3,0-.43-.06-.43-.4q0-1.89,0-3.78c0-.31.11-.38.39-.37h3.79c.33,0,.41.11.4.42q0,1.86,0,3.72c0,.33-.11.42-.42.41C26,17.37,25.39,17.39,24.75,17.39Z"/><path class="cls-3" d="M35.08,31c-.6,0-1.19,0-1.78,0-.32,0-.47-.07-.47-.44q0-1.83,0-3.66c0-.32.1-.44.42-.43,1.25,0,2.49,0,3.73,0,.34,0,.41.15.41.45,0,1.22,0,2.44,0,3.67,0,.31-.1.43-.42.42C36.34,31,35.71,31,35.08,31Z"/><path class="cls-3" d="M33.93,8.26c0,.61,0,1.22,0,1.84,0,.31-.12.44-.43.44H29.76c-.29,0-.39-.13-.39-.41,0-1.24,0-2.49,0-3.74,0-.29.12-.39.4-.39h3.74c.31,0,.44.1.42.42,0,.61,0,1.23,0,1.84Z"/></svg>